<svg width="1000" height="500" viewBox="0 0 1000 500" xmlns="http://www.w3.org/2000/svg">
<rect x="0" y="0" width="1000" height="500" fill="#FFFFFF"/>
<text font-size="18" x="398.5" y="5" dy="15" font-weight="bold" dominant-baseline="middle" font-family="Roboto" fill="#464646">
CPU and Memory Usage
</text>
<g>
<line stroke-width="2" x1="25" y1="25" x2="50" y2="25" stroke="#FF6B6B"/>
<circle cx="37.5" cy="25" r="5.5" stroke-width="2" stroke="#FF6B6B" fill="#FFFFFF"/>
<text font-size="14" x="53" y="29" font-family="Roboto" fill="#464646">
CPU %
</text>
</g>
<g>
<line stroke-width="2" x1="101" y1="25" x2="126" y2="25" stroke="#51CF66"/>
<circle cx="113.5" cy="25" r="5.5" stroke-width="2" stroke="#51CF66" fill="#FFFFFF"/>
<text font-size="14" x="129" y="29" font-family="Roboto" fill="#464646">
Memory GB
</text>
</g>
<g stroke="#E0E6F2">
<line stroke-width="1" x1="48" y1="57" x2="944" y2="57"/><line stroke-width="1" x1="48" y1="125" x2="944" y2="125"/><line stroke-width="1" x1="48" y1="193" x2="944" y2="193"/><line stroke-width="1" x1="48" y1="261" x2="944" y2="261"/><line stroke-width="1" x1="48" y1="329" x2="944" y2="329"/><line stroke-width="1" x1="48" y1="397" x2="944" y2="397"/>
</g>
<g>

<text font-size="14" x="6" y="62" font-family="Roboto" fill="#6E7079">
100%
</text>
<text font-size="14" x="2" y="130" font-family="Roboto" fill="#6E7079">
83.3%
</text>
<text font-size="14" x="2" y="198" font-family="Roboto" fill="#6E7079">
66.7%
</text>
<text font-size="14" x="14" y="266" font-family="Roboto" fill="#6E7079">
50%
</text>
<text font-size="14" x="2" y="334" font-family="Roboto" fill="#6E7079">
33.3%
</text>
<text font-size="14" x="2" y="402" font-family="Roboto" fill="#6E7079">
16.7%
</text>
<text font-size="14" x="22" y="470" font-family="Roboto" fill="#6E7079">
0%
</text>
</g>
<g>

<text font-size="14" x="952" y="64" font-family="Roboto" fill="#6E7079">
15.6GB
</text>
<text font-size="14" x="952" y="132" font-family="Roboto" fill="#6E7079">
13GB
</text>
<text font-size="14" x="952" y="200" font-family="Roboto" fill="#6E7079">
10.4GB
</text>
<text font-size="14" x="952" y="268" font-family="Roboto" fill="#6E7079">
7.8GB
</text>
<text font-size="14" x="952" y="336" font-family="Roboto" fill="#6E7079">
5.2GB
</text>
<text font-size="14" x="952" y="404" font-family="Roboto" fill="#6E7079">
2.6GB
</text>
<text font-size="14" x="952" y="472" font-family="Roboto" fill="#6E7079">
0GB
</text>
</g>
<g>
<g stroke="#6E7079">
<line stroke-width="1" x1="48" y1="465" x2="944" y2="465"/>
<line stroke-width="1" x1="48" y1="465" x2="48" y2="470"/>
<line stroke-width="1" x1="107.7" y1="465" x2="107.7" y2="470"/>
<line stroke-width="1" x1="167.5" y1="465" x2="167.5" y2="470"/>
<line stroke-width="1" x1="227.2" y1="465" x2="227.2" y2="470"/>
<line stroke-width="1" x1="286.9" y1="465" x2="286.9" y2="470"/>
<line stroke-width="1" x1="346.7" y1="465" x2="346.7" y2="470"/>
<line stroke-width="1" x1="406.4" y1="465" x2="406.4" y2="470"/>
<line stroke-width="1" x1="466.1" y1="465" x2="466.1" y2="470"/>
<line stroke-width="1" x1="525.9" y1="465" x2="525.9" y2="470"/>
<line stroke-width="1" x1="585.6" y1="465" x2="585.6" y2="470"/>
<line stroke-width="1" x1="645.3" y1="465" x2="645.3" y2="470"/>
<line stroke-width="1" x1="705.1" y1="465" x2="705.1" y2="470"/>
<line stroke-width="1" x1="764.8" y1="465" x2="764.8" y2="470"/>
<line stroke-width="1" x1="824.5" y1="465" x2="824.5" y2="470"/>
<line stroke-width="1" x1="884.3" y1="465" x2="884.3" y2="470"/>
<line stroke-width="1" x1="944" y1="465" x2="944" y2="470"/>
</g>
<text font-size="14" x="70.4" y="484" font-family="Roboto" fill="#6E7079">
0s
</text>
<text font-size="14" x="130.1" y="484" font-family="Roboto" fill="#6E7079">
2s
</text>
<text font-size="14" x="189.8" y="484" font-family="Roboto" fill="#6E7079">
4s
</text>
<text font-size="14" x="249.6" y="484" font-family="Roboto" fill="#6E7079">
6s
</text>
<text font-size="14" x="309.3" y="484" font-family="Roboto" fill="#6E7079">
8s
</text>
<text font-size="14" x="365" y="484" font-family="Roboto" fill="#6E7079">
10s
</text>
<text font-size="14" x="424.8" y="484" font-family="Roboto" fill="#6E7079">
12s
</text>
<text font-size="14" x="484.5" y="484" font-family="Roboto" fill="#6E7079">
14s
</text>
<text font-size="14" x="544.2" y="484" font-family="Roboto" fill="#6E7079">
16s
</text>
<text font-size="14" x="604" y="484" font-family="Roboto" fill="#6E7079">
18s
</text>
<text font-size="14" x="663.7" y="484" font-family="Roboto" fill="#6E7079">
20s
</text>
<text font-size="14" x="723.4" y="484" font-family="Roboto" fill="#6E7079">
22s
</text>
<text font-size="14" x="783.2" y="484" font-family="Roboto" fill="#6E7079">
24s
</text>
<text font-size="14" x="842.9" y="484" font-family="Roboto" fill="#6E7079">
26s
</text>
<text font-size="14" x="902.6" y="484" font-family="Roboto" fill="#6E7079">
28s
</text>
</g>
<path d="M77.9,465 C92.8 460, 122.5 445.8, 137.6 445.1 C152.3 444.4, 182.2 457.5, 197.3 459.4 C212.1 461.2, 242.1 459.8, 257.1 459.9 C272 460, 301.9 460.3, 316.8 460.4 C331.7 460.5, 361.6 461.2, 376.5 460.4 C391.5 459.6, 421.4 453.4, 436.3 453.8 C451.3 454.2, 481 462.4, 496 463.5 C510.8 464.5, 540.8 462.4, 555.7 462.5 C570.7 462.5, 600.5 464, 615.5 464 C630.4 464, 660.3 462.5, 675.2 462.5 C690.1 462.5, 720 463.9, 734.9 464 C749.9 464, 779.7 463, 794.7 463 C809.6 462.9, 839.5 463.5, 854.4 463.5 C869.3 463.5, 899.2 463.1, 914.1 463M 914.1 463 L 914.1 465 L 77.9 465 L 77.9 465" fill="#FF6B6B" fill-opacity="0.4"/>
<g>
<path d="M77.9,465 C92.8 460, 122.5 445.8, 137.6 445.1 C152.3 444.4, 182.2 457.5, 197.3 459.4 C212.1 461.2, 242.1 459.8, 257.1 459.9 C272 460, 301.9 460.3, 316.8 460.4 C331.7 460.5, 361.6 461.2, 376.5 460.4 C391.5 459.6, 421.4 453.4, 436.3 453.8 C451.3 454.2, 481 462.4, 496 463.5 C510.8 464.5, 540.8 462.4, 555.7 462.5 C570.7 462.5, 600.5 464, 615.5 464 C630.4 464, 660.3 462.5, 675.2 462.5 C690.1 462.5, 720 463.9, 734.9 464 C749.9 464, 779.7 463, 794.7 463 C809.6 462.9, 839.5 463.5, 854.4 463.5 C869.3 463.5, 899.2 463.1, 914.1 463" stroke-width="2" fill="none" stroke="#FF6B6B"/>
<circle cx="77.9" cy="465" r="2" stroke-width="2" stroke="#FF6B6B" fill="#FFFFFF"/>
<circle cx="137.6" cy="445.1" r="2" stroke-width="2" stroke="#FF6B6B" fill="#FFFFFF"/>
<circle cx="197.3" cy="459.4" r="2" stroke-width="2" stroke="#FF6B6B" fill="#FFFFFF"/>
<circle cx="257.1" cy="459.9" r="2" stroke-width="2" stroke="#FF6B6B" fill="#FFFFFF"/>
<circle cx="316.8" cy="460.4" r="2" stroke-width="2" stroke="#FF6B6B" fill="#FFFFFF"/>
<circle cx="376.5" cy="460.4" r="2" stroke-width="2" stroke="#FF6B6B" fill="#FFFFFF"/>
<circle cx="436.3" cy="453.8" r="2" stroke-width="2" stroke="#FF6B6B" fill="#FFFFFF"/>
<circle cx="496" cy="463.5" r="2" stroke-width="2" stroke="#FF6B6B" fill="#FFFFFF"/>
<circle cx="555.7" cy="462.5" r="2" stroke-width="2" stroke="#FF6B6B" fill="#FFFFFF"/>
<circle cx="615.5" cy="464" r="2" stroke-width="2" stroke="#FF6B6B" fill="#FFFFFF"/>
<circle cx="675.2" cy="462.5" r="2" stroke-width="2" stroke="#FF6B6B" fill="#FFFFFF"/>
<circle cx="734.9" cy="464" r="2" stroke-width="2" stroke="#FF6B6B" fill="#FFFFFF"/>
<circle cx="794.7" cy="463" r="2" stroke-width="2" stroke="#FF6B6B" fill="#FFFFFF"/>
<circle cx="854.4" cy="463.5" r="2" stroke-width="2" stroke="#FF6B6B" fill="#FFFFFF"/>
<circle cx="914.1" cy="463" r="2" stroke-width="2" stroke="#FF6B6B" fill="#FFFFFF"/>
</g>
<path d="M77.9,443.3 C92.8 443.3, 122.7 443.3, 137.6 443.3 C152.5 443.3, 182.4 443.3, 197.3 443.3 C212.3 443.3, 242.1 443.3, 257.1 443.3 C272 443.4, 301.9 443.5, 316.8 443.5 C331.7 443.6, 361.6 443.6, 376.5 443.6 C391.5 443.6, 421.3 443.6, 436.3 443.6 C451.2 443.6, 481.1 443.6, 496 443.5 C510.9 443.5, 540.8 443.5, 555.7 443.5 C570.7 443.5, 600.5 443.6, 615.5 443.5 C630.4 443.5, 660.3 443.5, 675.2 443.5 C690.1 443.5, 720 443.5, 734.9 443.5 C749.9 443.5, 779.7 443.5, 794.7 443.5 C809.6 443.5, 839.5 443.5, 854.4 443.5 C869.3 443.5, 899.2 443.5, 914.1 443.5M 914.1 443.5 L 914.1 465 L 77.9 465 L 77.9 443.3" fill="#51CF66" fill-opacity="0.4"/>
<g>
<path d="M77.9,443.3 C92.8 443.3, 122.7 443.3, 137.6 443.3 C152.5 443.3, 182.4 443.3, 197.3 443.3 C212.3 443.3, 242.1 443.3, 257.1 443.3 C272 443.4, 301.9 443.5, 316.8 443.5 C331.7 443.6, 361.6 443.6, 376.5 443.6 C391.5 443.6, 421.3 443.6, 436.3 443.6 C451.2 443.6, 481.1 443.6, 496 443.5 C510.9 443.5, 540.8 443.5, 555.7 443.5 C570.7 443.5, 600.5 443.6, 615.5 443.5 C630.4 443.5, 660.3 443.5, 675.2 443.5 C690.1 443.5, 720 443.5, 734.9 443.5 C749.9 443.5, 779.7 443.5, 794.7 443.5 C809.6 443.5, 839.5 443.5, 854.4 443.5 C869.3 443.5, 899.2 443.5, 914.1 443.5" stroke-width="2" fill="none" stroke="#51CF66"/>
<circle cx="77.9" cy="443.3" r="2" stroke-width="2" stroke="#51CF66" fill="#FFFFFF"/>
<circle cx="137.6" cy="443.3" r="2" stroke-width="2" stroke="#51CF66" fill="#FFFFFF"/>
<circle cx="197.3" cy="443.3" r="2" stroke-width="2" stroke="#51CF66" fill="#FFFFFF"/>
<circle cx="257.1" cy="443.3" r="2" stroke-width="2" stroke="#51CF66" fill="#FFFFFF"/>
<circle cx="316.8" cy="443.5" r="2" stroke-width="2" stroke="#51CF66" fill="#FFFFFF"/>
<circle cx="376.5" cy="443.6" r="2" stroke-width="2" stroke="#51CF66" fill="#FFFFFF"/>
<circle cx="436.3" cy="443.6" r="2" stroke-width="2" stroke="#51CF66" fill="#FFFFFF"/>
<circle cx="496" cy="443.5" r="2" stroke-width="2" stroke="#51CF66" fill="#FFFFFF"/>
<circle cx="555.7" cy="443.5" r="2" stroke-width="2" stroke="#51CF66" fill="#FFFFFF"/>
<circle cx="615.5" cy="443.5" r="2" stroke-width="2" stroke="#51CF66" fill="#FFFFFF"/>
<circle cx="675.2" cy="443.5" r="2" stroke-width="2" stroke="#51CF66" fill="#FFFFFF"/>
<circle cx="734.9" cy="443.5" r="2" stroke-width="2" stroke="#51CF66" fill="#FFFFFF"/>
<circle cx="794.7" cy="443.5" r="2" stroke-width="2" stroke="#51CF66" fill="#FFFFFF"/>
<circle cx="854.4" cy="443.5" r="2" stroke-width="2" stroke="#51CF66" fill="#FFFFFF"/>
<circle cx="914.1" cy="443.5" r="2" stroke-width="2" stroke="#51CF66" fill="#FFFFFF"/>
</g>
</svg>