<svg width="800" height="400" viewBox="0 0 800 400" xmlns="http://www.w3.org/2000/svg">
<rect x="0" y="0" width="800" height="400" fill="#FFFFFF"/>
<text font-size="18" x="337" y="5" dy="15" font-weight="bold" dominant-baseline="middle" font-family="Roboto" fill="#464646">
Memory Usage
</text>
<g>
<line stroke-width="2" x1="348" y1="15" x2="373" y2="15" stroke="#5470C6"/>
<circle cx="360.5" cy="15" r="5.5" stroke-width="2" stroke="#5470C6" fill="#FFFFFF"/>
<text font-size="14" x="376" y="19" font-family="Roboto" fill="#464646">
Memory GB
</text>
</g>
<g stroke="#E0E6F2">
<line stroke-width="1" x1="30" y1="40" x2="795" y2="40"/><line stroke-width="1" x1="30" y1="94.2" x2="795" y2="94.2"/><line stroke-width="1" x1="30" y1="148.3" x2="795" y2="148.3"/><line stroke-width="1" x1="30" y1="202.5" x2="795" y2="202.5"/><line stroke-width="1" x1="30" y1="256.7" x2="795" y2="256.7"/><line stroke-width="1" x1="30" y1="310.8" x2="795" y2="310.8"/>
</g>
<g>

<text font-size="14" x="2" y="45" font-family="Roboto" fill="#6E7079">
1.2
</text>
<text font-size="14" x="17" y="99.2" font-family="Roboto" fill="#6E7079">
1
</text>
<text font-size="14" x="2" y="153.3" font-family="Roboto" fill="#6E7079">
0.8
</text>
<text font-size="14" x="2" y="207.5" font-family="Roboto" fill="#6E7079">
0.6
</text>
<text font-size="14" x="2" y="261.7" font-family="Roboto" fill="#6E7079">
0.4
</text>
<text font-size="14" x="2" y="315.8" font-family="Roboto" fill="#6E7079">
0.2
</text>
<text font-size="14" x="14" y="370" font-family="Roboto" fill="#6E7079">
0
</text>
</g>
<g>
<g stroke="#6E7079">
<line stroke-width="1" x1="30" y1="365" x2="795" y2="365"/>
<line stroke-width="1" x1="30" y1="365" x2="30" y2="370"/>
<line stroke-width="1" x1="81" y1="365" x2="81" y2="370"/>
<line stroke-width="1" x1="132" y1="365" x2="132" y2="370"/>
<line stroke-width="1" x1="183" y1="365" x2="183" y2="370"/>
<line stroke-width="1" x1="234" y1="365" x2="234" y2="370"/>
<line stroke-width="1" x1="285" y1="365" x2="285" y2="370"/>
<line stroke-width="1" x1="336" y1="365" x2="336" y2="370"/>
<line stroke-width="1" x1="387" y1="365" x2="387" y2="370"/>
<line stroke-width="1" x1="438" y1="365" x2="438" y2="370"/>
<line stroke-width="1" x1="489" y1="365" x2="489" y2="370"/>
<line stroke-width="1" x1="540" y1="365" x2="540" y2="370"/>
<line stroke-width="1" x1="591" y1="365" x2="591" y2="370"/>
<line stroke-width="1" x1="642" y1="365" x2="642" y2="370"/>
<line stroke-width="1" x1="693" y1="365" x2="693" y2="370"/>
<line stroke-width="1" x1="744" y1="365" x2="744" y2="370"/>
<line stroke-width="1" x1="795" y1="365" x2="795" y2="370"/>
</g>
<text font-size="14" x="48" y="384" font-family="Roboto" fill="#6E7079">
0s
</text>
<text font-size="14" x="99" y="384" font-family="Roboto" fill="#6E7079">
2s
</text>
<text font-size="14" x="150" y="384" font-family="Roboto" fill="#6E7079">
4s
</text>
<text font-size="14" x="201" y="384" font-family="Roboto" fill="#6E7079">
6s
</text>
<text font-size="14" x="252" y="384" font-family="Roboto" fill="#6E7079">
8s
</text>
<text font-size="14" x="299" y="384" font-family="Roboto" fill="#6E7079">
10s
</text>
<text font-size="14" x="350" y="384" font-family="Roboto" fill="#6E7079">
12s
</text>
<text font-size="14" x="401" y="384" font-family="Roboto" fill="#6E7079">
14s
</text>
<text font-size="14" x="452" y="384" font-family="Roboto" fill="#6E7079">
16s
</text>
<text font-size="14" x="503" y="384" font-family="Roboto" fill="#6E7079">
18s
</text>
<text font-size="14" x="554" y="384" font-family="Roboto" fill="#6E7079">
20s
</text>
<text font-size="14" x="605" y="384" font-family="Roboto" fill="#6E7079">
22s
</text>
<text font-size="14" x="656" y="384" font-family="Roboto" fill="#6E7079">
24s
</text>
<text font-size="14" x="707" y="384" font-family="Roboto" fill="#6E7079">
26s
</text>
<text font-size="14" x="758" y="384" font-family="Roboto" fill="#6E7079">
28s
</text>
</g>
<g>
<path d="M 55.5 140.2 L 106.5 140.2 L 157.5 140.2 L 208.5 140.5 L 259.5 142.3 L 310.5 143.1 L 361.5 142.8 L 412.5 142.6 L 463.5 142.6 L 514.5 142.6 L 565.5 142.3 L 616.5 142 L 667.5 142 L 718.5 142 L 769.5 141.8" stroke-width="2" fill="none" stroke="#5470C6"/>
<circle cx="55.5" cy="140.2" r="2" stroke-width="2" stroke="#5470C6" fill="#FFFFFF"/>
<circle cx="106.5" cy="140.2" r="2" stroke-width="2" stroke="#5470C6" fill="#FFFFFF"/>
<circle cx="157.5" cy="140.2" r="2" stroke-width="2" stroke="#5470C6" fill="#FFFFFF"/>
<circle cx="208.5" cy="140.5" r="2" stroke-width="2" stroke="#5470C6" fill="#FFFFFF"/>
<circle cx="259.5" cy="142.3" r="2" stroke-width="2" stroke="#5470C6" fill="#FFFFFF"/>
<circle cx="310.5" cy="143.1" r="2" stroke-width="2" stroke="#5470C6" fill="#FFFFFF"/>
<circle cx="361.5" cy="142.8" r="2" stroke-width="2" stroke="#5470C6" fill="#FFFFFF"/>
<circle cx="412.5" cy="142.6" r="2" stroke-width="2" stroke="#5470C6" fill="#FFFFFF"/>
<circle cx="463.5" cy="142.6" r="2" stroke-width="2" stroke="#5470C6" fill="#FFFFFF"/>
<circle cx="514.5" cy="142.6" r="2" stroke-width="2" stroke="#5470C6" fill="#FFFFFF"/>
<circle cx="565.5" cy="142.3" r="2" stroke-width="2" stroke="#5470C6" fill="#FFFFFF"/>
<circle cx="616.5" cy="142" r="2" stroke-width="2" stroke="#5470C6" fill="#FFFFFF"/>
<circle cx="667.5" cy="142" r="2" stroke-width="2" stroke="#5470C6" fill="#FFFFFF"/>
<circle cx="718.5" cy="142" r="2" stroke-width="2" stroke="#5470C6" fill="#FFFFFF"/>
<circle cx="769.5" cy="141.8" r="2" stroke-width="2" stroke="#5470C6" fill="#FFFFFF"/>
</g>
</svg>