<svg width="800" height="400" viewBox="0 0 800 400" xmlns="http://www.w3.org/2000/svg">
<rect x="0" y="0" width="800" height="400" fill="#FFFFFF"/>
<text font-size="18" x="337" y="5" dy="15" font-weight="bold" dominant-baseline="middle" font-family="Roboto" fill="#464646">
Memory Usage
</text>
<g>
<line stroke-width="2" x1="348" y1="15" x2="373" y2="15" stroke="#5470C6"/>
<circle cx="360.5" cy="15" r="5.5" stroke-width="2" stroke="#5470C6" fill="#FFFFFF"/>
<text font-size="14" x="376" y="19" font-family="Roboto" fill="#464646">
Memory GB
</text>
</g>
<g stroke="#E0E6F2">
<line stroke-width="1" x1="26" y1="40" x2="795" y2="40"/><line stroke-width="1" x1="26" y1="94.2" x2="795" y2="94.2"/><line stroke-width="1" x1="26" y1="148.3" x2="795" y2="148.3"/><line stroke-width="1" x1="26" y1="202.5" x2="795" y2="202.5"/><line stroke-width="1" x1="26" y1="256.7" x2="795" y2="256.7"/><line stroke-width="1" x1="26" y1="310.8" x2="795" y2="310.8"/>
</g>
<g>

<text font-size="14" x="2" y="45" font-family="Roboto" fill="#6E7079">
12
</text>
<text font-size="14" x="2" y="99.2" font-family="Roboto" fill="#6E7079">
10
</text>
<text font-size="14" x="10" y="153.3" font-family="Roboto" fill="#6E7079">
8
</text>
<text font-size="14" x="10" y="207.5" font-family="Roboto" fill="#6E7079">
6
</text>
<text font-size="14" x="10" y="261.7" font-family="Roboto" fill="#6E7079">
4
</text>
<text font-size="14" x="10" y="315.8" font-family="Roboto" fill="#6E7079">
2
</text>
<text font-size="14" x="10" y="370" font-family="Roboto" fill="#6E7079">
0
</text>
</g>
<g>
<g stroke="#6E7079">
<line stroke-width="1" x1="26" y1="365" x2="795" y2="365"/>
<line stroke-width="1" x1="26" y1="365" x2="26" y2="370"/>
<line stroke-width="1" x1="135.9" y1="365" x2="135.9" y2="370"/>
<line stroke-width="1" x1="245.7" y1="365" x2="245.7" y2="370"/>
<line stroke-width="1" x1="355.6" y1="365" x2="355.6" y2="370"/>
<line stroke-width="1" x1="465.4" y1="365" x2="465.4" y2="370"/>
<line stroke-width="1" x1="575.3" y1="365" x2="575.3" y2="370"/>
<line stroke-width="1" x1="685.1" y1="365" x2="685.1" y2="370"/>
<line stroke-width="1" x1="795" y1="365" x2="795" y2="370"/>
</g>
<text font-size="14" x="73.4" y="384" font-family="Roboto" fill="#6E7079">
0s
</text>
<text font-size="14" x="183.3" y="384" font-family="Roboto" fill="#6E7079">
2s
</text>
<text font-size="14" x="293.1" y="384" font-family="Roboto" fill="#6E7079">
4s
</text>
<text font-size="14" x="403" y="384" font-family="Roboto" fill="#6E7079">
6s
</text>
<text font-size="14" x="512.9" y="384" font-family="Roboto" fill="#6E7079">
8s
</text>
<text font-size="14" x="618.7" y="384" font-family="Roboto" fill="#6E7079">
10s
</text>
<text font-size="14" x="728.6" y="384" font-family="Roboto" fill="#6E7079">
12s
</text>
</g>
<g>
<path d="M 80.9 283.8 L 190.8 256.7 L 300.6 216 L 410.5 175.4 L 520.4 202.5 L 630.2 243.1 L 740.1 270.2" stroke-width="2" fill="none" stroke="#5470C6"/>
<circle cx="80.9" cy="283.8" r="2" stroke-width="2" stroke="#5470C6" fill="#FFFFFF"/>
<circle cx="190.8" cy="256.7" r="2" stroke-width="2" stroke="#5470C6" fill="#FFFFFF"/>
<circle cx="300.6" cy="216" r="2" stroke-width="2" stroke="#5470C6" fill="#FFFFFF"/>
<circle cx="410.5" cy="175.4" r="2" stroke-width="2" stroke="#5470C6" fill="#FFFFFF"/>
<circle cx="520.4" cy="202.5" r="2" stroke-width="2" stroke="#5470C6" fill="#FFFFFF"/>
<circle cx="630.2" cy="243.1" r="2" stroke-width="2" stroke="#5470C6" fill="#FFFFFF"/>
<circle cx="740.1" cy="270.2" r="2" stroke-width="2" stroke="#5470C6" fill="#FFFFFF"/>
</g>
</svg>